# MagicaVoxel @ Ephtracy

# group
o 

# material
mtllib cat.mtl
usemtl palette

# normals
vn -1 0 0
vn 1 0 0
vn 0 0 1
vn 0 0 -1
vn 0 -1 0
vn 0 1 0

# texcoords
vt 0.0292969 0.5
vt 0.201172 0.5
vt 0.958984 0.5
vt 0.994141 0.5

# verts
v 0.4 4.3 0
v 0.4 4.3 -0.1
v 0.4 4.9 0
v 0.4 4.9 -0.1
v 0.5 4.1 0
v 0.5 4.1 -0.1
v 0.5 4.3 0
v 0.5 4.3 -0.1
v 0.5 4.9 0
v 0.5 4.9 -0.1
v 0.5 5 0
v 0.5 5 -0.1
v 0.6 5 0
v 0.6 5 -0.1
v 0.6 5.2 0
v 0.6 5.2 -0.1
v 0.7 3.3 0
v 0.7 3.3 -0.1
v 0.7 4.1 0
v 0.7 4.1 -0.1
v 0.7 5.2 0
v 0.7 5.2 -0.1
v 0.7 5.3 0
v 0.7 5.3 -0.1
v 0.8 3.2 0
v 0.8 3.2 -0.1
v 0.8 3.3 0
v 0.8 3.3 -0.1
v 0.8 5.3 0
v 0.8 5.3 -0.1
v 0.8 5.4 0
v 0.8 5.4 -0.1
v 1.2 3.2 0
v 1.2 3.2 -0.1
v 1.2 3.4 0
v 1.2 3.4 -0.1
v 1.2 5.1 0
v 1.2 5.1 -0.1
v 1.2 5.2 0
v 1.2 5.2 -0.1
v 1.3 5.2 0
v 1.3 5.2 -0.1
v 1.3 5.3 0
v 1.3 5.3 -0.1
v 1.4 5.3 0
v 1.4 5.3 -0.1
v 1.4 5.4 0
v 1.4 5.4 -0.1
v 2.1 3.8 0
v 2.1 3.8 -0.1
v 2.1 3.9 0
v 2.1 3.9 -0.1
v 0.9 5.3 0
v 0.9 5.3 -0.1
v 0.9 5.4 0
v 0.9 5.4 -0.1
v 1 3.2 0
v 1 3.2 -0.1
v 1 3.4 0
v 1 3.4 -0.1
v 1 5.1 0
v 1 5.1 -0.1
v 1 5.3 0
v 1 5.3 -0.1
v 1.5 5.3 0
v 1.5 5.3 -0.1
v 1.5 5.4 0
v 1.5 5.4 -0.1
v 1.6 5.2 0
v 1.6 5.2 -0.1
v 1.6 5.3 0
v 1.6 5.3 -0.1
v 1.7 4.1 0
v 1.7 4.1 -0.1
v 1.7 4.2 0
v 1.7 4.2 -0.1
v 1.7 5 0
v 1.7 5 -0.1
v 1.7 5.2 0
v 1.7 5.2 -0.1
v 1.8 4 0
v 1.8 4 -0.1
v 1.8 4.1 0
v 1.8 4.1 -0.1
v 1.8 4.9 0
v 1.8 4.9 -0.1
v 1.8 5 0
v 1.8 5 -0.1
v 1.9 3.9 0
v 1.9 3.9 -0.1
v 1.9 4 0
v 1.9 4 -0.1
v 1.9 4.2 0
v 1.9 4.2 -0.1
v 1.9 4.9 0
v 1.9 4.9 -0.1
v 2 3.8 0
v 2 3.8 -0.1
v 2 3.9 0
v 2 3.9 -0.1
v 2.1 3.2 0
v 2.1 3.2 -0.1
v 2.1 3.3 0
v 2.1 3.3 -0.1
v 2.2 3.3 0
v 2.2 3.3 -0.1
v 2.2 3.5 0
v 2.2 3.5 -0.1
v 2.3 3.5 0
v 2.3 3.5 -0.1
v 2.3 3.9 0
v 2.3 3.9 -0.1
v 0.4 4.3 0
v 0.4 4.9 0
v 0.5 4.1 0
v 0.5 4.3 0
v 0.5 4.9 0
v 0.5 5 0
v 0.6 4.2 0
v 0.6 4.3 0
v 0.6 4.7 0
v 0.6 4.8 0
v 0.6 4.9 0
v 0.6 5 0
v 0.6 5.2 0
v 0.7 3.3 0
v 0.7 4.1 0
v 0.7 5 0
v 0.7 5.2 0
v 0.7 5.3 0
v 0.8 3.2 0
v 0.8 3.3 0
v 0.8 3.6 0
v 0.8 4.2 0
v 0.8 4.5 0
v 0.8 4.6 0
v 0.8 4.7 0
v 0.8 4.8 0
v 0.8 5 0
v 0.8 5.2 0
v 0.8 5.3 0
v 0.8 5.4 0
v 0.9 3.3 0
v 0.9 3.5 0
v 0.9 3.6 0
v 0.9 4.6 0
v 0.9 4.7 0
v 0.9 5 0
v 0.9 5.3 0
v 0.9 5.4 0
v 1 3.2 0
v 1 3.4 0
v 1 3.5 0
v 1 3.6 0
v 1 4.6 0
v 1 4.7 0
v 1 4.9 0
v 1 5 0
v 1 5.1 0
v 1 5.3 0
v 1.1 4.5 0
v 1.1 4.6 0
v 1.1 4.8 0
v 1.1 4.9 0
v 1.2 3.2 0
v 1.2 3.4 0
v 1.2 4.6 0
v 1.2 4.7 0
v 1.2 4.8 0
v 1.2 5.1 0
v 1.2 5.2 0
v 1.3 3.3 0
v 1.3 3.6 0
v 1.3 4.5 0
v 1.3 4.6 0
v 1.3 5 0
v 1.3 5.1 0
v 1.3 5.2 0
v 1.3 5.3 0
v 1.4 3.3 0
v 1.4 3.6 0
v 1.4 3.7 0
v 1.4 4.4 0
v 1.4 4.5 0
v 1.4 4.7 0
v 1.4 4.8 0
v 1.4 5.1 0
v 1.4 5.2 0
v 1.4 5.3 0
v 1.4 5.4 0
v 1.5 3.3 0
v 1.5 3.4 0
v 1.5 3.5 0
v 1.5 3.6 0
v 1.5 3.7 0
v 1.5 5 0
v 1.5 5.1 0
v 1.5 5.2 0
v 1.5 5.3 0
v 1.5 5.4 0
v 1.6 3.5 0
v 1.6 3.6 0
v 1.6 3.7 0
v 1.6 3.9 0
v 1.6 4.1 0
v 1.6 4.2 0
v 1.6 5 0
v 1.6 5.1 0
v 1.6 5.2 0
v 1.6 5.3 0
v 1.7 3.6 0
v 1.7 3.7 0
v 1.7 4 0
v 1.7 4.1 0
v 1.7 4.2 0
v 1.7 4.3 0
v 1.7 4.9 0
v 1.7 5 0
v 1.7 5.2 0
v 1.8 3.8 0
v 1.8 3.9 0
v 1.8 4 0
v 1.8 4.1 0
v 1.8 4.3 0
v 1.8 4.4 0
v 1.8 4.9 0
v 1.8 5 0
v 1.9 3.3 0
v 1.9 3.4 0
v 1.9 3.8 0
v 1.9 3.9 0
v 1.9 4 0
v 1.9 4.2 0
v 1.9 4.9 0
v 2 3.4 0
v 2 3.6 0
v 2 3.7 0
v 2 3.8 0
v 2 3.9 0
v 2.1 3.2 0
v 2.1 3.3 0
v 2.1 3.4 0
v 2.1 3.6 0
v 2.1 3.7 0
v 2.1 3.8 0
v 2.1 3.9 0
v 2.2 3.3 0
v 2.2 3.5 0
v 2.2 3.6 0
v 2.2 3.8 0
v 2.3 3.5 0
v 2.3 3.9 0
v 0.4 4.3 -0.1
v 0.4 4.9 -0.1
v 0.5 4.1 -0.1
v 0.5 4.3 -0.1
v 0.5 4.9 -0.1
v 0.5 5 -0.1
v 0.6 4.2 -0.1
v 0.6 4.3 -0.1
v 0.6 4.7 -0.1
v 0.6 4.8 -0.1
v 0.6 4.9 -0.1
v 0.6 5 -0.1
v 0.6 5.2 -0.1
v 0.7 3.3 -0.1
v 0.7 4.1 -0.1
v 0.7 5 -0.1
v 0.7 5.2 -0.1
v 0.7 5.3 -0.1
v 0.8 3.2 -0.1
v 0.8 3.3 -0.1
v 0.8 3.6 -0.1
v 0.8 4.2 -0.1
v 0.8 4.5 -0.1
v 0.8 4.6 -0.1
v 0.8 4.7 -0.1
v 0.8 4.8 -0.1
v 0.8 5 -0.1
v 0.8 5.2 -0.1
v 0.8 5.3 -0.1
v 0.8 5.4 -0.1
v 0.9 3.3 -0.1
v 0.9 3.5 -0.1
v 0.9 3.6 -0.1
v 0.9 4.6 -0.1
v 0.9 4.7 -0.1
v 0.9 5 -0.1
v 0.9 5.3 -0.1
v 0.9 5.4 -0.1
v 1 3.2 -0.1
v 1 3.4 -0.1
v 1 3.5 -0.1
v 1 3.6 -0.1
v 1 4.6 -0.1
v 1 4.7 -0.1
v 1 4.9 -0.1
v 1 5 -0.1
v 1 5.1 -0.1
v 1 5.3 -0.1
v 1.1 4.5 -0.1
v 1.1 4.6 -0.1
v 1.1 4.8 -0.1
v 1.1 4.9 -0.1
v 1.2 3.2 -0.1
v 1.2 3.4 -0.1
v 1.2 4.6 -0.1
v 1.2 4.7 -0.1
v 1.2 4.8 -0.1
v 1.2 5.1 -0.1
v 1.2 5.2 -0.1
v 1.3 3.3 -0.1
v 1.3 3.6 -0.1
v 1.3 4.5 -0.1
v 1.3 4.6 -0.1
v 1.3 5 -0.1
v 1.3 5.1 -0.1
v 1.3 5.2 -0.1
v 1.3 5.3 -0.1
v 1.4 3.3 -0.1
v 1.4 3.6 -0.1
v 1.4 3.7 -0.1
v 1.4 4.4 -0.1
v 1.4 4.5 -0.1
v 1.4 4.7 -0.1
v 1.4 4.8 -0.1
v 1.4 5.1 -0.1
v 1.4 5.2 -0.1
v 1.4 5.3 -0.1
v 1.4 5.4 -0.1
v 1.5 3.3 -0.1
v 1.5 3.4 -0.1
v 1.5 3.5 -0.1
v 1.5 3.6 -0.1
v 1.5 3.7 -0.1
v 1.5 5 -0.1
v 1.5 5.1 -0.1
v 1.5 5.2 -0.1
v 1.5 5.3 -0.1
v 1.5 5.4 -0.1
v 1.6 3.5 -0.1
v 1.6 3.6 -0.1
v 1.6 3.7 -0.1
v 1.6 3.9 -0.1
v 1.6 4.1 -0.1
v 1.6 4.2 -0.1
v 1.6 5 -0.1
v 1.6 5.1 -0.1
v 1.6 5.2 -0.1
v 1.6 5.3 -0.1
v 1.7 3.6 -0.1
v 1.7 3.7 -0.1
v 1.7 4 -0.1
v 1.7 4.1 -0.1
v 1.7 4.2 -0.1
v 1.7 4.3 -0.1
v 1.7 4.9 -0.1
v 1.7 5 -0.1
v 1.7 5.2 -0.1
v 1.8 3.8 -0.1
v 1.8 3.9 -0.1
v 1.8 4 -0.1
v 1.8 4.1 -0.1
v 1.8 4.3 -0.1
v 1.8 4.4 -0.1
v 1.8 4.9 -0.1
v 1.8 5 -0.1
v 1.9 3.3 -0.1
v 1.9 3.4 -0.1
v 1.9 3.8 -0.1
v 1.9 3.9 -0.1
v 1.9 4 -0.1
v 1.9 4.2 -0.1
v 1.9 4.9 -0.1
v 2 3.4 -0.1
v 2 3.6 -0.1
v 2 3.7 -0.1
v 2 3.8 -0.1
v 2 3.9 -0.1
v 2.1 3.2 -0.1
v 2.1 3.3 -0.1
v 2.1 3.4 -0.1
v 2.1 3.6 -0.1
v 2.1 3.7 -0.1
v 2.1 3.8 -0.1
v 2.1 3.9 -0.1
v 2.2 3.3 -0.1
v 2.2 3.5 -0.1
v 2.2 3.6 -0.1
v 2.2 3.8 -0.1
v 2.3 3.5 -0.1
v 2.3 3.9 -0.1
v 0.8 3.2 0
v 1 3.2 0
v 1.2 3.2 0
v 2.1 3.2 0
v 0.8 3.2 -0.1
v 1 3.2 -0.1
v 1.2 3.2 -0.1
v 2.1 3.2 -0.1
v 0.7 3.3 0
v 0.8 3.3 0
v 2.1 3.3 0
v 2.2 3.3 0
v 0.7 3.3 -0.1
v 0.8 3.3 -0.1
v 2.1 3.3 -0.1
v 2.2 3.3 -0.1
v 1 3.4 0
v 1.2 3.4 0
v 1 3.4 -0.1
v 1.2 3.4 -0.1
v 2.2 3.5 0
v 2.3 3.5 0
v 2.2 3.5 -0.1
v 2.3 3.5 -0.1
v 0.5 4.1 0
v 0.7 4.1 0
v 0.5 4.1 -0.1
v 0.7 4.1 -0.1
v 1.7 4.2 0
v 1.9 4.2 0
v 1.7 4.2 -0.1
v 1.9 4.2 -0.1
v 0.4 4.3 0
v 0.5 4.3 0
v 0.4 4.3 -0.1
v 0.5 4.3 -0.1
v 2 3.8 0
v 2.1 3.8 0
v 2 3.8 -0.1
v 2.1 3.8 -0.1
v 1.9 3.9 0
v 2 3.9 0
v 2.1 3.9 0
v 2.3 3.9 0
v 1.9 3.9 -0.1
v 2 3.9 -0.1
v 2.1 3.9 -0.1
v 2.3 3.9 -0.1
v 1.8 4 0
v 1.9 4 0
v 1.8 4 -0.1
v 1.9 4 -0.1
v 1.7 4.1 0
v 1.8 4.1 0
v 1.7 4.1 -0.1
v 1.8 4.1 -0.1
v 0.4 4.9 0
v 0.5 4.9 0
v 1.8 4.9 0
v 1.9 4.9 0
v 0.4 4.9 -0.1
v 0.5 4.9 -0.1
v 1.8 4.9 -0.1
v 1.9 4.9 -0.1
v 0.5 5 0
v 0.6 5 0
v 1.7 5 0
v 1.8 5 0
v 0.5 5 -0.1
v 0.6 5 -0.1
v 1.7 5 -0.1
v 1.8 5 -0.1
v 1 5.1 0
v 1.2 5.1 0
v 1 5.1 -0.1
v 1.2 5.1 -0.1
v 0.6 5.2 0
v 0.7 5.2 0
v 1.2 5.2 0
v 1.3 5.2 0
v 1.6 5.2 0
v 1.7 5.2 0
v 0.6 5.2 -0.1
v 0.7 5.2 -0.1
v 1.2 5.2 -0.1
v 1.3 5.2 -0.1
v 1.6 5.2 -0.1
v 1.7 5.2 -0.1
v 0.7 5.3 0
v 0.8 5.3 0
v 0.9 5.3 0
v 1 5.3 0
v 1.3 5.3 0
v 1.4 5.3 0
v 1.5 5.3 0
v 1.6 5.3 0
v 0.7 5.3 -0.1
v 0.8 5.3 -0.1
v 0.9 5.3 -0.1
v 1 5.3 -0.1
v 1.3 5.3 -0.1
v 1.4 5.3 -0.1
v 1.5 5.3 -0.1
v 1.6 5.3 -0.1
v 0.8 5.4 0
v 0.9 5.4 0
v 1.4 5.4 0
v 1.5 5.4 0
v 0.8 5.4 -0.1
v 0.9 5.4 -0.1
v 1.4 5.4 -0.1
v 1.5 5.4 -0.1

# faces
f 3/4/1 2/4/1 1/4/1
f 4/4/1 2/4/1 3/4/1
f 7/4/1 6/4/1 5/4/1
f 8/4/1 6/4/1 7/4/1
f 11/4/1 10/4/1 9/4/1
f 12/4/1 10/4/1 11/4/1
f 15/4/1 14/4/1 13/4/1
f 16/4/1 14/4/1 15/4/1
f 19/4/1 18/4/1 17/4/1
f 20/4/1 18/4/1 19/4/1
f 23/4/1 22/4/1 21/4/1
f 24/4/1 22/4/1 23/4/1
f 27/4/1 26/4/1 25/4/1
f 28/4/1 26/4/1 27/4/1
f 31/4/1 30/4/1 29/4/1
f 32/4/1 30/4/1 31/4/1
f 35/4/1 34/4/1 33/4/1
f 36/4/1 34/4/1 35/4/1
f 39/4/1 38/4/1 37/4/1
f 40/4/1 38/4/1 39/4/1
f 43/4/1 42/4/1 41/4/1
f 44/4/1 42/4/1 43/4/1
f 47/4/1 46/4/1 45/4/1
f 48/4/1 46/4/1 47/4/1
f 51/4/1 50/4/1 49/4/1
f 52/4/1 50/4/1 51/4/1
f 53/4/2 54/4/2 55/4/2
f 55/4/2 54/4/2 56/4/2
f 57/4/2 58/4/2 59/4/2
f 59/4/2 58/4/2 60/4/2
f 61/4/2 62/4/2 63/4/2
f 63/4/2 62/4/2 64/4/2
f 65/4/2 66/4/2 67/4/2
f 67/4/2 66/4/2 68/4/2
f 69/4/2 70/4/2 71/4/2
f 71/4/2 70/4/2 72/4/2
f 73/4/2 74/4/2 75/4/2
f 75/4/2 74/4/2 76/4/2
f 77/4/2 78/4/2 79/4/2
f 79/4/2 78/4/2 80/4/2
f 81/4/2 82/4/2 83/4/2
f 83/4/2 82/4/2 84/4/2
f 85/4/2 86/4/2 87/4/2
f 87/4/2 86/4/2 88/4/2
f 89/4/2 90/4/2 91/4/2
f 91/4/2 90/4/2 92/4/2
f 93/4/2 94/4/2 95/4/2
f 95/4/2 94/4/2 96/4/2
f 97/4/2 98/4/2 99/4/2
f 99/4/2 98/4/2 100/4/2
f 101/4/2 102/4/2 103/4/2
f 103/4/2 102/4/2 104/4/2
f 105/4/2 106/4/2 107/4/2
f 107/4/2 106/4/2 108/4/2
f 109/4/2 110/4/2 111/4/2
f 111/4/2 110/4/2 112/4/2
f 116/4/3 114/4/3 113/4/3
f 117/4/3 114/4/3 116/4/3
f 119/4/3 116/4/3 115/4/3
f 120/3/3 117/3/3 116/3/3
f 120/4/3 116/4/3 119/4/3
f 121/3/3 117/3/3 120/3/3
f 122/3/3 117/3/3 121/3/3
f 123/4/3 118/4/3 117/4/3
f 123/3/3 117/3/3 122/3/3
f 124/4/3 118/4/3 123/4/3
f 127/4/3 119/4/3 115/4/3
f 128/4/3 125/4/3 124/4/3
f 128/3/3 123/3/3 122/3/3
f 128/3/3 124/3/3 123/3/3
f 129/4/3 125/4/3 128/4/3
f 132/4/3 127/4/3 126/4/3
f 133/4/3 127/4/3 132/4/3
f 134/3/3 120/3/3 119/3/3
f 134/4/3 127/4/3 133/4/3
f 134/3/3 121/3/3 120/3/3
f 134/4/3 119/4/3 127/4/3
f 135/3/3 121/3/3 134/3/3
f 136/3/3 121/3/3 135/3/3
f 137/4/3 122/4/3 121/4/3
f 137/3/3 121/3/3 136/3/3
f 138/3/3 128/3/3 122/3/3
f 138/4/3 122/4/3 137/4/3
f 139/1/3 129/1/3 128/1/3
f 139/3/3 128/3/3 138/3/3
f 140/4/3 130/4/3 129/4/3
f 140/1/3 129/1/3 139/1/3
f 141/4/3 130/4/3 140/4/3
f 143/2/3 133/2/3 132/2/3
f 143/4/3 132/4/3 131/4/3
f 144/2/3 133/2/3 143/2/3
f 145/3/3 134/3/3 133/3/3
f 145/2/3 133/2/3 144/2/3
f 145/3/3 135/3/3 134/3/3
f 146/4/3 136/4/3 135/4/3
f 146/3/3 139/3/3 138/3/3
f 146/3/3 141/3/3 140/3/3
f 146/3/3 140/3/3 139/3/3
f 146/3/3 137/3/3 136/3/3
f 146/3/3 138/3/3 137/3/3
f 147/3/3 141/3/3 146/3/3
f 148/3/3 141/3/3 147/3/3
f 149/4/3 142/4/3 141/4/3
f 149/3/3 141/3/3 148/3/3
f 150/4/3 142/4/3 149/4/3
f 151/4/3 143/4/3 131/4/3
f 151/4/3 144/4/3 143/4/3
f 152/4/3 144/4/3 151/4/3
f 153/3/3 145/3/3 144/3/3
f 153/4/3 144/4/3 152/4/3
f 154/3/3 135/3/3 145/3/3
f 154/3/3 145/3/3 153/3/3
f 155/4/3 146/4/3 135/4/3
f 155/4/3 147/4/3 146/4/3
f 156/3/3 148/3/3 147/3/3
f 156/4/3 147/4/3 155/4/3
f 157/3/3 148/3/3 156/3/3
f 158/4/3 149/4/3 148/4/3
f 158/3/3 148/3/3 157/3/3
f 159/4/3 149/4/3 158/4/3
f 160/4/3 149/4/3 159/4/3
f 161/4/3 155/4/3 135/4/3
f 161/3/3 135/3/3 154/3/3
f 162/3/3 157/3/3 156/3/3
f 162/4/3 155/4/3 161/4/3
f 162/3/3 156/3/3 155/3/3
f 163/3/3 157/3/3 162/3/3
f 164/2/3 158/2/3 157/2/3
f 164/3/3 157/3/3 163/3/3
f 166/4/3 153/4/3 152/4/3
f 166/4/3 154/4/3 153/4/3
f 167/3/3 163/3/3 162/3/3
f 167/3/3 162/3/3 161/3/3
f 168/3/3 163/3/3 167/3/3
f 169/2/3 164/2/3 163/2/3
f 169/3/3 163/3/3 168/3/3
f 170/4/3 159/4/3 158/4/3
f 172/4/3 166/4/3 165/4/3
f 173/3/3 161/3/3 154/3/3
f 173/4/3 166/4/3 172/4/3
f 173/4/3 154/4/3 166/4/3
f 173/3/3 167/3/3 161/3/3
f 174/3/3 167/3/3 173/3/3
f 175/2/3 168/2/3 167/2/3
f 175/3/3 167/3/3 174/3/3
f 176/2/3 158/2/3 164/2/3
f 176/2/3 164/2/3 169/2/3
f 176/4/3 171/4/3 170/4/3
f 176/4/3 170/4/3 158/4/3
f 177/4/3 171/4/3 176/4/3
f 178/4/3 171/4/3 177/4/3
f 180/4/3 172/4/3 165/4/3
f 180/2/3 173/2/3 172/2/3
f 181/3/3 174/3/3 173/3/3
f 181/2/3 173/2/3 180/2/3
f 182/3/3 174/3/3 181/3/3
f 183/3/3 174/3/3 182/3/3
f 184/2/3 175/2/3 174/2/3
f 184/3/3 174/3/3 183/3/3
f 185/2/3 168/2/3 175/2/3
f 185/2/3 175/2/3 184/2/3
f 185/4/3 169/4/3 168/4/3
f 186/2/3 176/2/3 169/2/3
f 186/4/3 169/4/3 185/4/3
f 187/4/3 179/4/3 178/4/3
f 187/4/3 178/4/3 177/4/3
f 187/1/3 177/1/3 176/1/3
f 188/4/3 179/4/3 187/4/3
f 189/4/3 179/4/3 188/4/3
f 191/4/3 180/4/3 165/4/3
f 191/4/3 182/4/3 181/4/3
f 191/4/3 181/4/3 180/4/3
f 192/4/3 182/4/3 191/4/3
f 193/4/3 182/4/3 192/4/3
f 194/4/3 182/4/3 193/4/3
f 195/3/3 183/3/3 182/3/3
f 195/4/3 182/4/3 194/4/3
f 196/2/3 184/2/3 183/2/3
f 196/2/3 176/2/3 186/2/3
f 196/2/3 186/2/3 185/2/3
f 196/1/3 188/1/3 187/1/3
f 196/2/3 185/2/3 184/2/3
f 196/1/3 187/1/3 176/1/3
f 197/1/3 188/1/3 196/1/3
f 198/2/3 189/2/3 188/2/3
f 198/1/3 188/1/3 197/1/3
f 199/4/3 190/4/3 189/4/3
f 199/2/3 189/2/3 198/2/3
f 200/4/3 190/4/3 199/4/3
f 201/4/3 194/4/3 193/4/3
f 201/3/3 193/3/3 192/3/3
f 202/3/3 195/3/3 194/3/3
f 202/4/3 194/4/3 201/4/3
f 203/3/3 183/3/3 195/3/3
f 203/3/3 195/3/3 202/3/3
f 204/3/3 183/3/3 203/3/3
f 205/3/3 183/3/3 204/3/3
f 206/3/3 183/3/3 205/3/3
f 207/2/3 197/2/3 196/2/3
f 207/2/3 196/2/3 183/2/3
f 208/4/3 199/4/3 198/4/3
f 208/2/3 197/2/3 207/2/3
f 208/4/3 198/4/3 197/4/3
f 209/4/3 199/4/3 208/4/3
f 210/4/3 199/4/3 209/4/3
f 211/3/3 202/3/3 201/3/3
f 211/4/3 203/4/3 202/4/3
f 212/3/3 204/3/3 203/3/3
f 212/4/3 203/4/3 211/4/3
f 213/2/3 205/2/3 204/2/3
f 214/4/3 206/4/3 205/4/3
f 214/2/3 205/2/3 213/2/3
f 215/3/3 183/3/3 206/3/3
f 215/4/3 206/4/3 214/4/3
f 216/3/3 183/3/3 215/3/3
f 217/2/3 207/2/3 183/2/3
f 218/4/3 209/4/3 208/4/3
f 218/2/3 207/2/3 217/2/3
f 218/4/3 208/4/3 207/4/3
f 219/4/3 209/4/3 218/4/3
f 220/3/3 204/3/3 212/3/3
f 220/3/3 212/3/3 211/3/3
f 221/2/3 213/2/3 204/2/3
f 221/3/3 204/3/3 220/3/3
f 222/4/3 214/4/3 213/4/3
f 222/2/3 213/2/3 221/2/3
f 223/4/3 214/4/3 222/4/3
f 224/3/3 183/3/3 216/3/3
f 224/4/3 216/4/3 215/4/3
f 225/2/3 217/2/3 183/2/3
f 225/3/3 183/3/3 224/3/3
f 226/4/3 218/4/3 217/4/3
f 226/2/3 217/2/3 225/2/3
f 227/4/3 218/4/3 226/4/3
f 228/2/3 192/2/3 191/2/3
f 228/4/3 191/4/3 165/4/3
f 229/3/3 201/3/3 192/3/3
f 229/2/3 192/2/3 228/2/3
f 229/3/3 220/3/3 211/3/3
f 229/3/3 211/3/3 201/3/3
f 230/2/3 221/2/3 220/2/3
f 230/3/3 220/3/3 229/3/3
f 231/4/3 222/4/3 221/4/3
f 231/2/3 221/2/3 230/2/3
f 232/4/3 222/4/3 231/4/3
f 233/4/3 226/4/3 225/4/3
f 233/4/3 225/4/3 224/4/3
f 233/4/3 224/4/3 215/4/3
f 234/4/3 226/4/3 233/4/3
f 235/4/3 229/4/3 228/4/3
f 235/4/3 231/4/3 230/4/3
f 235/4/3 230/4/3 229/4/3
f 236/4/3 231/4/3 235/4/3
f 237/4/3 231/4/3 236/4/3
f 238/4/3 231/4/3 237/4/3
f 239/4/3 231/4/3 238/4/3
f 240/4/3 228/4/3 165/4/3
f 240/4/3 235/4/3 228/4/3
f 241/4/3 235/4/3 240/4/3
f 242/3/3 236/3/3 235/3/3
f 242/4/3 235/4/3 241/4/3
f 243/2/3 237/2/3 236/2/3
f 243/3/3 236/3/3 242/3/3
f 244/4/3 238/4/3 237/4/3
f 244/2/3 237/2/3 243/2/3
f 245/4/3 238/4/3 244/4/3
f 247/4/3 243/4/3 242/4/3
f 247/4/3 242/4/3 241/4/3
f 248/4/3 243/4/3 247/4/3
f 249/2/3 245/2/3 244/2/3
f 249/4/3 243/4/3 248/4/3
f 249/2/3 244/2/3 243/2/3
f 250/4/3 246/4/3 245/4/3
f 250/2/3 245/2/3 249/2/3
f 251/4/3 249/4/3 248/4/3
f 251/4/3 250/4/3 249/4/3
f 252/4/3 246/4/3 250/4/3
f 252/4/3 250/4/3 251/4/3
f 253/4/4 254/4/4 256/4/4
f 256/4/4 254/4/4 257/4/4
f 255/4/4 256/4/4 259/4/4
f 256/3/4 257/3/4 260/3/4
f 259/4/4 256/4/4 260/4/4
f 260/3/4 257/3/4 261/3/4
f 261/3/4 257/3/4 262/3/4
f 257/4/4 258/4/4 263/4/4
f 262/3/4 257/3/4 263/3/4
f 263/4/4 258/4/4 264/4/4
f 255/4/4 259/4/4 267/4/4
f 264/4/4 265/4/4 268/4/4
f 262/3/4 263/3/4 268/3/4
f 263/3/4 264/3/4 268/3/4
f 268/4/4 265/4/4 269/4/4
f 266/4/4 267/4/4 272/4/4
f 272/4/4 267/4/4 273/4/4
f 259/3/4 260/3/4 274/3/4
f 273/4/4 267/4/4 274/4/4
f 260/3/4 261/3/4 274/3/4
f 267/4/4 259/4/4 274/4/4
f 274/3/4 261/3/4 275/3/4
f 275/3/4 261/3/4 276/3/4
f 261/4/4 262/4/4 277/4/4
f 276/3/4 261/3/4 277/3/4
f 262/3/4 268/3/4 278/3/4
f 277/4/4 262/4/4 278/4/4
f 268/1/4 269/1/4 279/1/4
f 278/3/4 268/3/4 279/3/4
f 269/4/4 270/4/4 280/4/4
f 279/1/4 269/1/4 280/1/4
f 280/4/4 270/4/4 281/4/4
f 272/2/4 273/2/4 283/2/4
f 271/4/4 272/4/4 283/4/4
f 283/2/4 273/2/4 284/2/4
f 273/3/4 274/3/4 285/3/4
f 284/2/4 273/2/4 285/2/4
f 274/3/4 275/3/4 285/3/4
f 275/4/4 276/4/4 286/4/4
f 278/3/4 279/3/4 286/3/4
f 280/3/4 281/3/4 286/3/4
f 279/3/4 280/3/4 286/3/4
f 276/3/4 277/3/4 286/3/4
f 277/3/4 278/3/4 286/3/4
f 286/3/4 281/3/4 287/3/4
f 287/3/4 281/3/4 288/3/4
f 281/4/4 282/4/4 289/4/4
f 288/3/4 281/3/4 289/3/4
f 289/4/4 282/4/4 290/4/4
f 271/4/4 283/4/4 291/4/4
f 283/4/4 284/4/4 291/4/4
f 291/4/4 284/4/4 292/4/4
f 284/3/4 285/3/4 293/3/4
f 292/4/4 284/4/4 293/4/4
f 285/3/4 275/3/4 294/3/4
f 293/3/4 285/3/4 294/3/4
f 275/4/4 286/4/4 295/4/4
f 286/4/4 287/4/4 295/4/4
f 287/3/4 288/3/4 296/3/4
f 295/4/4 287/4/4 296/4/4
f 296/3/4 288/3/4 297/3/4
f 288/4/4 289/4/4 298/4/4
f 297/3/4 288/3/4 298/3/4
f 298/4/4 289/4/4 299/4/4
f 299/4/4 289/4/4 300/4/4
f 275/4/4 295/4/4 301/4/4
f 294/3/4 275/3/4 301/3/4
f 296/3/4 297/3/4 302/3/4
f 301/4/4 295/4/4 302/4/4
f 295/3/4 296/3/4 302/3/4
f 302/3/4 297/3/4 303/3/4
f 297/2/4 298/2/4 304/2/4
f 303/3/4 297/3/4 304/3/4
f 292/4/4 293/4/4 306/4/4
f 293/4/4 294/4/4 306/4/4
f 302/3/4 303/3/4 307/3/4
f 301/3/4 302/3/4 307/3/4
f 307/3/4 303/3/4 308/3/4
f 303/2/4 304/2/4 309/2/4
f 308/3/4 303/3/4 309/3/4
f 298/4/4 299/4/4 310/4/4
f 305/4/4 306/4/4 312/4/4
f 294/3/4 301/3/4 313/3/4
f 312/4/4 306/4/4 313/4/4
f 306/4/4 294/4/4 313/4/4
f 301/3/4 307/3/4 313/3/4
f 313/3/4 307/3/4 314/3/4
f 307/2/4 308/2/4 315/2/4
f 314/3/4 307/3/4 315/3/4
f 304/2/4 298/2/4 316/2/4
f 309/2/4 304/2/4 316/2/4
f 310/4/4 311/4/4 316/4/4
f 298/4/4 310/4/4 316/4/4
f 316/4/4 311/4/4 317/4/4
f 317/4/4 311/4/4 318/4/4
f 305/4/4 312/4/4 320/4/4
f 312/2/4 313/2/4 320/2/4
f 313/3/4 314/3/4 321/3/4
f 320/2/4 313/2/4 321/2/4
f 321/3/4 314/3/4 322/3/4
f 322/3/4 314/3/4 323/3/4
f 314/2/4 315/2/4 324/2/4
f 323/3/4 314/3/4 324/3/4
f 315/2/4 308/2/4 325/2/4
f 324/2/4 315/2/4 325/2/4
f 308/4/4 309/4/4 325/4/4
f 309/2/4 316/2/4 326/2/4
f 325/4/4 309/4/4 326/4/4
f 318/4/4 319/4/4 327/4/4
f 317/4/4 318/4/4 327/4/4
f 316/1/4 317/1/4 327/1/4
f 327/4/4 319/4/4 328/4/4
f 328/4/4 319/4/4 329/4/4
f 305/4/4 320/4/4 331/4/4
f 321/4/4 322/4/4 331/4/4
f 320/4/4 321/4/4 331/4/4
f 331/4/4 322/4/4 332/4/4
f 332/4/4 322/4/4 333/4/4
f 333/4/4 322/4/4 334/4/4
f 322/3/4 323/3/4 335/3/4
f 334/4/4 322/4/4 335/4/4
f 323/2/4 324/2/4 336/2/4
f 326/2/4 316/2/4 336/2/4
f 325/2/4 326/2/4 336/2/4
f 327/1/4 328/1/4 336/1/4
f 324/2/4 325/2/4 336/2/4
f 316/1/4 327/1/4 336/1/4
f 336/1/4 328/1/4 337/1/4
f 328/2/4 329/2/4 338/2/4
f 337/1/4 328/1/4 338/1/4
f 329/4/4 330/4/4 339/4/4
f 338/2/4 329/2/4 339/2/4
f 339/4/4 330/4/4 340/4/4
f 333/4/4 334/4/4 341/4/4
f 332/3/4 333/3/4 341/3/4
f 334/3/4 335/3/4 342/3/4
f 341/4/4 334/4/4 342/4/4
f 335/3/4 323/3/4 343/3/4
f 342/3/4 335/3/4 343/3/4
f 343/3/4 323/3/4 344/3/4
f 344/3/4 323/3/4 345/3/4
f 345/3/4 323/3/4 346/3/4
f 336/2/4 337/2/4 347/2/4
f 323/2/4 336/2/4 347/2/4
f 338/4/4 339/4/4 348/4/4
f 347/2/4 337/2/4 348/2/4
f 337/4/4 338/4/4 348/4/4
f 348/4/4 339/4/4 349/4/4
f 349/4/4 339/4/4 350/4/4
f 341/3/4 342/3/4 351/3/4
f 342/4/4 343/4/4 351/4/4
f 343/3/4 344/3/4 352/3/4
f 351/4/4 343/4/4 352/4/4
f 344/2/4 345/2/4 353/2/4
f 345/4/4 346/4/4 354/4/4
f 353/2/4 345/2/4 354/2/4
f 346/3/4 323/3/4 355/3/4
f 354/4/4 346/4/4 355/4/4
f 355/3/4 323/3/4 356/3/4
f 323/2/4 347/2/4 357/2/4
f 348/4/4 349/4/4 358/4/4
f 357/2/4 347/2/4 358/2/4
f 347/4/4 348/4/4 358/4/4
f 358/4/4 349/4/4 359/4/4
f 352/3/4 344/3/4 360/3/4
f 351/3/4 352/3/4 360/3/4
f 344/2/4 353/2/4 361/2/4
f 360/3/4 344/3/4 361/3/4
f 353/4/4 354/4/4 362/4/4
f 361/2/4 353/2/4 362/2/4
f 362/4/4 354/4/4 363/4/4
f 356/3/4 323/3/4 364/3/4
f 355/4/4 356/4/4 364/4/4
f 323/2/4 357/2/4 365/2/4
f 364/3/4 323/3/4 365/3/4
f 357/4/4 358/4/4 366/4/4
f 365/2/4 357/2/4 366/2/4
f 366/4/4 358/4/4 367/4/4
f 331/2/4 332/2/4 368/2/4
f 305/4/4 331/4/4 368/4/4
f 332/3/4 341/3/4 369/3/4
f 368/2/4 332/2/4 369/2/4
f 351/3/4 360/3/4 369/3/4
f 341/3/4 351/3/4 369/3/4
f 360/2/4 361/2/4 370/2/4
f 369/3/4 360/3/4 370/3/4
f 361/4/4 362/4/4 371/4/4
f 370/2/4 361/2/4 371/2/4
f 371/4/4 362/4/4 372/4/4
f 365/4/4 366/4/4 373/4/4
f 364/4/4 365/4/4 373/4/4
f 355/4/4 364/4/4 373/4/4
f 373/4/4 366/4/4 374/4/4
f 368/4/4 369/4/4 375/4/4
f 370/4/4 371/4/4 375/4/4
f 369/4/4 370/4/4 375/4/4
f 375/4/4 371/4/4 376/4/4
f 376/4/4 371/4/4 377/4/4
f 377/4/4 371/4/4 378/4/4
f 378/4/4 371/4/4 379/4/4
f 305/4/4 368/4/4 380/4/4
f 368/4/4 375/4/4 380/4/4
f 380/4/4 375/4/4 381/4/4
f 375/3/4 376/3/4 382/3/4
f 381/4/4 375/4/4 382/4/4
f 376/2/4 377/2/4 383/2/4
f 382/3/4 376/3/4 383/3/4
f 377/4/4 378/4/4 384/4/4
f 383/2/4 377/2/4 384/2/4
f 384/4/4 378/4/4 385/4/4
f 382/4/4 383/4/4 387/4/4
f 381/4/4 382/4/4 387/4/4
f 387/4/4 383/4/4 388/4/4
f 384/2/4 385/2/4 389/2/4
f 388/4/4 383/4/4 389/4/4
f 383/2/4 384/2/4 389/2/4
f 385/4/4 386/4/4 390/4/4
f 389/2/4 385/2/4 390/2/4
f 388/4/4 389/4/4 391/4/4
f 389/4/4 390/4/4 391/4/4
f 390/4/4 386/4/4 392/4/4
f 391/4/4 390/4/4 392/4/4
f 397/4/5 394/4/5 393/4/5
f 398/4/5 394/4/5 397/4/5
f 399/4/5 396/4/5 395/4/5
f 400/4/5 396/4/5 399/4/5
f 405/4/5 402/4/5 401/4/5
f 406/4/5 402/4/5 405/4/5
f 407/4/5 404/4/5 403/4/5
f 408/4/5 404/4/5 407/4/5
f 411/4/5 410/4/5 409/4/5
f 412/4/5 410/4/5 411/4/5
f 415/4/5 414/4/5 413/4/5
f 416/4/5 414/4/5 415/4/5
f 419/4/5 418/4/5 417/4/5
f 420/4/5 418/4/5 419/4/5
f 423/4/5 422/4/5 421/4/5
f 424/4/5 422/4/5 423/4/5
f 427/4/5 426/4/5 425/4/5
f 428/4/5 426/4/5 427/4/5
f 429/4/6 430/4/6 431/4/6
f 431/4/6 430/4/6 432/4/6
f 433/4/6 434/4/6 437/4/6
f 437/4/6 434/4/6 438/4/6
f 435/4/6 436/4/6 439/4/6
f 439/4/6 436/4/6 440/4/6
f 441/4/6 442/4/6 443/4/6
f 443/4/6 442/4/6 444/4/6
f 445/4/6 446/4/6 447/4/6
f 447/4/6 446/4/6 448/4/6
f 449/4/6 450/4/6 453/4/6
f 453/4/6 450/4/6 454/4/6
f 451/4/6 452/4/6 455/4/6
f 455/4/6 452/4/6 456/4/6
f 457/4/6 458/4/6 461/4/6
f 461/4/6 458/4/6 462/4/6
f 459/4/6 460/4/6 463/4/6
f 463/4/6 460/4/6 464/4/6
f 465/4/6 466/4/6 467/4/6
f 467/4/6 466/4/6 468/4/6
f 469/4/6 470/4/6 475/4/6
f 475/4/6 470/4/6 476/4/6
f 471/4/6 472/4/6 477/4/6
f 477/4/6 472/4/6 478/4/6
f 473/4/6 474/4/6 479/4/6
f 479/4/6 474/4/6 480/4/6
f 481/4/6 482/4/6 489/4/6
f 489/4/6 482/4/6 490/4/6
f 483/4/6 484/4/6 491/4/6
f 491/4/6 484/4/6 492/4/6
f 485/4/6 486/4/6 493/4/6
f 493/4/6 486/4/6 494/4/6
f 487/4/6 488/4/6 495/4/6
f 495/4/6 488/4/6 496/4/6
f 497/4/6 498/4/6 501/4/6
f 501/4/6 498/4/6 502/4/6
f 499/4/6 500/4/6 503/4/6
f 503/4/6 500/4/6 504/4/6
