# MagicaVoxel @ Ephtracy

# group
o 

# material
mtllib speechBubble.mtl
usemtl palette

# normals
vn -1 0 0
vn 1 0 0
vn 0 0 1
vn 0 0 -1
vn 0 -1 0
vn 0 1 0

# texcoords
vt 0.00195312 0.5
vt 0.962891 0.5
vt 0.990234 0.5
vt 0.994141 0.5

# verts
v 0.3 4 0
v 0.3 4 -0.1
v 0.3 4.7 0
v 0.3 4.7 -0.1
v 0.4 3 0
v 0.4 3 -0.1
v 0.4 3.1 0
v 0.4 3.1 -0.1
v 0.4 3.7 0
v 0.4 3.7 -0.1
v 0.4 4 0
v 0.4 4 -0.1
v 0.4 4.7 0
v 0.4 4.7 -0.1
v 0.4 4.8 0
v 0.4 4.8 -0.1
v 0.5 3.6 0
v 0.5 3.6 -0.1
v 0.5 3.7 0
v 0.5 3.7 -0.1
v 0.5 4.8 0
v 0.5 4.8 -0.1
v 0.5 4.9 0
v 0.5 4.9 -0.1
v 0.6 3.1 0
v 0.6 3.1 -0.1
v 0.6 3.3 0
v 0.6 3.3 -0.1
v 0.6 4.9 0
v 0.6 4.9 -0.1
v 0.6 5 0
v 0.6 5 -0.1
v 0.7 3.3 0
v 0.7 3.3 -0.1
v 0.7 3.6 0
v 0.7 3.6 -0.1
v 0.8 5 0
v 0.8 5 -0.1
v 0.8 5.1 0
v 0.8 5.1 -0.1
v 1 5.1 0
v 1 5.1 -0.1
v 1 5.2 0
v 1 5.2 -0.1
v 0.7 3 0
v 0.7 3 -0.1
v 0.7 3.1 0
v 0.7 3.1 -0.1
v 1 3.1 0
v 1 3.1 -0.1
v 1 3.2 0
v 1 3.2 -0.1
v 1.2 3.2 0
v 1.2 3.2 -0.1
v 1.2 3.3 0
v 1.2 3.3 -0.1
v 3.1 3.3 0
v 3.1 3.3 -0.1
v 3.1 3.4 0
v 3.1 3.4 -0.1
v 3.1 5.1 0
v 3.1 5.1 -0.1
v 3.1 5.2 0
v 3.1 5.2 -0.1
v 3.3 3.4 0
v 3.3 3.4 -0.1
v 3.3 3.5 0
v 3.3 3.5 -0.1
v 3.4 3.5 0
v 3.4 3.5 -0.1
v 3.4 3.6 0
v 3.4 3.6 -0.1
v 3.4 5 0
v 3.4 5 -0.1
v 3.4 5.1 0
v 3.4 5.1 -0.1
v 3.6 3.6 0
v 3.6 3.6 -0.1
v 3.6 3.7 0
v 3.6 3.7 -0.1
v 3.6 4.9 0
v 3.6 4.9 -0.1
v 3.6 5 0
v 3.6 5 -0.1
v 3.7 3.7 0
v 3.7 3.7 -0.1
v 3.7 3.8 0
v 3.7 3.8 -0.1
v 3.7 4.8 0
v 3.7 4.8 -0.1
v 3.7 4.9 0
v 3.7 4.9 -0.1
v 3.8 3.8 0
v 3.8 3.8 -0.1
v 3.8 3.9 0
v 3.8 3.9 -0.1
v 3.8 4.7 0
v 3.8 4.7 -0.1
v 3.8 4.8 0
v 3.8 4.8 -0.1
v 3.9 3.9 0
v 3.9 3.9 -0.1
v 3.9 4.7 0
v 3.9 4.7 -0.1
v 0.3 4 0
v 0.3 4.7 0
v 0.4 3 0
v 0.4 3.1 0
v 0.4 3.7 0
v 0.4 4 0
v 0.4 4.1 0
v 0.4 4.4 0
v 0.4 4.7 0
v 0.4 4.8 0
v 0.5 3.6 0
v 0.5 3.7 0
v 0.5 4 0
v 0.5 4.1 0
v 0.5 4.4 0
v 0.5 4.6 0
v 0.5 4.8 0
v 0.5 4.9 0
v 0.6 3.1 0
v 0.6 3.3 0
v 0.6 3.8 0
v 0.6 4 0
v 0.6 4.6 0
v 0.6 4.7 0
v 0.6 4.9 0
v 0.6 5 0
v 0.7 3 0
v 0.7 3.1 0
v 0.7 3.3 0
v 0.7 3.6 0
v 0.7 3.7 0
v 0.7 3.8 0
v 0.7 4.7 0
v 0.7 4.9 0
v 0.8 3.2 0
v 0.8 3.3 0
v 0.8 3.4 0
v 0.8 3.6 0
v 0.8 3.7 0
v 0.8 5 0
v 0.8 5.1 0
v 0.9 3.2 0
v 0.9 3.3 0
v 0.9 3.4 0
v 0.9 3.6 0
v 0.9 4.9 0
v 0.9 5 0
v 1 3.1 0
v 1 3.2 0
v 1 5.1 0
v 1 5.2 0
v 1.1 3.3 0
v 1.1 3.4 0
v 1.1 3.5 0
v 1.1 5 0
v 1.1 5.1 0
v 1.2 3.2 0
v 1.2 3.3 0
v 1.2 3.4 0
v 1.2 3.5 0
v 1.2 3.6 0
v 1.2 5.1 0
v 1.2 5.2 0
v 3 3.6 0
v 3 3.7 0
v 3 5 0
v 3 5.1 0
v 3.1 3.3 0
v 3.1 3.4 0
v 3.1 3.5 0
v 3.1 3.6 0
v 3.1 5.1 0
v 3.1 5.2 0
v 3.2 3.7 0
v 3.2 3.8 0
v 3.3 3.4 0
v 3.3 3.5 0
v 3.3 3.6 0
v 3.3 3.7 0
v 3.3 4.9 0
v 3.3 5 0
v 3.4 3.5 0
v 3.4 3.6 0
v 3.4 3.8 0
v 3.4 3.9 0
v 3.4 5 0
v 3.4 5.1 0
v 3.5 3.7 0
v 3.5 3.8 0
v 3.5 4.7 0
v 3.5 4.9 0
v 3.6 3.6 0
v 3.6 3.7 0
v 3.6 3.8 0
v 3.6 3.9 0
v 3.6 4.1 0
v 3.6 4.6 0
v 3.6 4.7 0
v 3.6 4.9 0
v 3.6 5 0
v 3.7 3.7 0
v 3.7 3.8 0
v 3.7 3.9 0
v 3.7 4.1 0
v 3.7 4.4 0
v 3.7 4.6 0
v 3.7 4.8 0
v 3.7 4.9 0
v 3.8 3.8 0
v 3.8 3.9 0
v 3.8 4.1 0
v 3.8 4.4 0
v 3.8 4.7 0
v 3.8 4.8 0
v 3.9 3.9 0
v 3.9 4.7 0
v 0.3 4 -0.1
v 0.3 4.7 -0.1
v 0.4 3 -0.1
v 0.4 3.1 -0.1
v 0.4 3.7 -0.1
v 0.4 4 -0.1
v 0.4 4.1 -0.1
v 0.4 4.4 -0.1
v 0.4 4.7 -0.1
v 0.4 4.8 -0.1
v 0.5 3.6 -0.1
v 0.5 3.7 -0.1
v 0.5 4 -0.1
v 0.5 4.1 -0.1
v 0.5 4.4 -0.1
v 0.5 4.6 -0.1
v 0.5 4.8 -0.1
v 0.5 4.9 -0.1
v 0.6 3.1 -0.1
v 0.6 3.3 -0.1
v 0.6 3.8 -0.1
v 0.6 4 -0.1
v 0.6 4.6 -0.1
v 0.6 4.7 -0.1
v 0.6 4.9 -0.1
v 0.6 5 -0.1
v 0.7 3 -0.1
v 0.7 3.1 -0.1
v 0.7 3.3 -0.1
v 0.7 3.6 -0.1
v 0.7 3.7 -0.1
v 0.7 3.8 -0.1
v 0.7 4.7 -0.1
v 0.7 4.9 -0.1
v 0.8 3.2 -0.1
v 0.8 3.3 -0.1
v 0.8 3.4 -0.1
v 0.8 3.6 -0.1
v 0.8 3.7 -0.1
v 0.8 5 -0.1
v 0.8 5.1 -0.1
v 0.9 3.2 -0.1
v 0.9 3.3 -0.1
v 0.9 3.4 -0.1
v 0.9 3.6 -0.1
v 0.9 4.9 -0.1
v 0.9 5 -0.1
v 1 3.1 -0.1
v 1 3.2 -0.1
v 1 5.1 -0.1
v 1 5.2 -0.1
v 1.1 3.3 -0.1
v 1.1 3.4 -0.1
v 1.1 3.5 -0.1
v 1.1 5 -0.1
v 1.1 5.1 -0.1
v 1.2 3.2 -0.1
v 1.2 3.3 -0.1
v 1.2 3.4 -0.1
v 1.2 3.5 -0.1
v 1.2 3.6 -0.1
v 1.2 5.1 -0.1
v 1.2 5.2 -0.1
v 3 3.6 -0.1
v 3 3.7 -0.1
v 3 5 -0.1
v 3 5.1 -0.1
v 3.1 3.3 -0.1
v 3.1 3.4 -0.1
v 3.1 3.5 -0.1
v 3.1 3.6 -0.1
v 3.1 5.1 -0.1
v 3.1 5.2 -0.1
v 3.2 3.7 -0.1
v 3.2 3.8 -0.1
v 3.3 3.4 -0.1
v 3.3 3.5 -0.1
v 3.3 3.6 -0.1
v 3.3 3.7 -0.1
v 3.3 4.9 -0.1
v 3.3 5 -0.1
v 3.4 3.5 -0.1
v 3.4 3.6 -0.1
v 3.4 3.8 -0.1
v 3.4 3.9 -0.1
v 3.4 5 -0.1
v 3.4 5.1 -0.1
v 3.5 3.7 -0.1
v 3.5 3.8 -0.1
v 3.5 4.7 -0.1
v 3.5 4.9 -0.1
v 3.6 3.6 -0.1
v 3.6 3.7 -0.1
v 3.6 3.8 -0.1
v 3.6 3.9 -0.1
v 3.6 4.1 -0.1
v 3.6 4.6 -0.1
v 3.6 4.7 -0.1
v 3.6 4.9 -0.1
v 3.6 5 -0.1
v 3.7 3.7 -0.1
v 3.7 3.8 -0.1
v 3.7 3.9 -0.1
v 3.7 4.1 -0.1
v 3.7 4.4 -0.1
v 3.7 4.6 -0.1
v 3.7 4.8 -0.1
v 3.7 4.9 -0.1
v 3.8 3.8 -0.1
v 3.8 3.9 -0.1
v 3.8 4.1 -0.1
v 3.8 4.4 -0.1
v 3.8 4.7 -0.1
v 3.8 4.8 -0.1
v 3.9 3.9 -0.1
v 3.9 4.7 -0.1
v 0.4 3 0
v 0.7 3 0
v 0.4 3 -0.1
v 0.7 3 -0.1
v 0.7 3.1 0
v 1 3.1 0
v 0.7 3.1 -0.1
v 1 3.1 -0.1
v 1 3.2 0
v 1.2 3.2 0
v 1 3.2 -0.1
v 1.2 3.2 -0.1
v 1.2 3.3 0
v 3.1 3.3 0
v 1.2 3.3 -0.1
v 3.1 3.3 -0.1
v 3.1 3.4 0
v 3.3 3.4 0
v 3.1 3.4 -0.1
v 3.3 3.4 -0.1
v 3.3 3.5 0
v 3.4 3.5 0
v 3.3 3.5 -0.1
v 3.4 3.5 -0.1
v 0.5 3.6 0
v 0.7 3.6 0
v 3.4 3.6 0
v 3.6 3.6 0
v 0.5 3.6 -0.1
v 0.7 3.6 -0.1
v 3.4 3.6 -0.1
v 3.6 3.6 -0.1
v 0.4 3.7 0
v 0.5 3.7 0
v 3.6 3.7 0
v 3.7 3.7 0
v 0.4 3.7 -0.1
v 0.5 3.7 -0.1
v 3.6 3.7 -0.1
v 3.7 3.7 -0.1
v 3.7 3.8 0
v 3.8 3.8 0
v 3.7 3.8 -0.1
v 3.8 3.8 -0.1
v 3.8 3.9 0
v 3.9 3.9 0
v 3.8 3.9 -0.1
v 3.9 3.9 -0.1
v 0.3 4 0
v 0.4 4 0
v 0.3 4 -0.1
v 0.4 4 -0.1
v 0.4 3.1 0
v 0.6 3.1 0
v 0.4 3.1 -0.1
v 0.6 3.1 -0.1
v 0.6 3.3 0
v 0.7 3.3 0
v 0.6 3.3 -0.1
v 0.7 3.3 -0.1
v 0.3 4.7 0
v 0.4 4.7 0
v 3.8 4.7 0
v 3.9 4.7 0
v 0.3 4.7 -0.1
v 0.4 4.7 -0.1
v 3.8 4.7 -0.1
v 3.9 4.7 -0.1
v 0.4 4.8 0
v 0.5 4.8 0
v 3.7 4.8 0
v 3.8 4.8 0
v 0.4 4.8 -0.1
v 0.5 4.8 -0.1
v 3.7 4.8 -0.1
v 3.8 4.8 -0.1
v 0.5 4.9 0
v 0.6 4.9 0
v 3.6 4.9 0
v 3.7 4.9 0
v 0.5 4.9 -0.1
v 0.6 4.9 -0.1
v 3.6 4.9 -0.1
v 3.7 4.9 -0.1
v 0.6 5 0
v 0.8 5 0
v 3.4 5 0
v 3.6 5 0
v 0.6 5 -0.1
v 0.8 5 -0.1
v 3.4 5 -0.1
v 3.6 5 -0.1
v 0.8 5.1 0
v 1 5.1 0
v 3.1 5.1 0
v 3.4 5.1 0
v 0.8 5.1 -0.1
v 1 5.1 -0.1
v 3.1 5.1 -0.1
v 3.4 5.1 -0.1
v 1 5.2 0
v 1.2 5.2 0
v 3.1 5.2 0
v 1 5.2 -0.1
v 1.2 5.2 -0.1
v 3.1 5.2 -0.1

# faces
f 3/3/1 2/3/1 1/3/1
f 4/3/1 2/3/1 3/3/1
f 7/3/1 6/3/1 5/3/1
f 8/3/1 6/3/1 7/3/1
f 11/3/1 10/3/1 9/3/1
f 12/3/1 10/3/1 11/3/1
f 15/3/1 14/3/1 13/3/1
f 16/3/1 14/3/1 15/3/1
f 19/3/1 18/3/1 17/3/1
f 20/3/1 18/3/1 19/3/1
f 23/3/1 22/3/1 21/3/1
f 24/3/1 22/3/1 23/3/1
f 27/3/1 26/3/1 25/3/1
f 28/3/1 26/3/1 27/3/1
f 31/3/1 30/3/1 29/3/1
f 32/3/1 30/3/1 31/3/1
f 35/3/1 34/3/1 33/3/1
f 36/3/1 34/3/1 35/3/1
f 39/3/1 38/3/1 37/3/1
f 40/3/1 38/3/1 39/3/1
f 43/4/1 42/4/1 41/4/1
f 44/4/1 42/4/1 43/4/1
f 45/3/2 46/3/2 47/3/2
f 47/3/2 46/3/2 48/3/2
f 49/3/2 50/3/2 51/3/2
f 51/3/2 50/3/2 52/3/2
f 53/3/2 54/3/2 55/3/2
f 55/3/2 54/3/2 56/3/2
f 57/3/2 58/3/2 59/3/2
f 59/3/2 58/3/2 60/3/2
f 61/3/2 62/3/2 63/3/2
f 63/3/2 62/3/2 64/3/2
f 65/3/2 66/3/2 67/3/2
f 67/3/2 66/3/2 68/3/2
f 69/3/2 70/3/2 71/3/2
f 71/3/2 70/3/2 72/3/2
f 73/3/2 74/3/2 75/3/2
f 75/3/2 74/3/2 76/3/2
f 77/3/2 78/3/2 79/3/2
f 79/3/2 78/3/2 80/3/2
f 81/3/2 82/3/2 83/3/2
f 83/3/2 82/3/2 84/3/2
f 85/3/2 86/3/2 87/3/2
f 87/3/2 86/3/2 88/3/2
f 89/3/2 90/3/2 91/3/2
f 91/3/2 90/3/2 92/3/2
f 93/3/2 94/3/2 95/3/2
f 95/3/2 94/3/2 96/3/2
f 97/3/2 98/3/2 99/3/2
f 99/3/2 98/3/2 100/3/2
f 101/3/2 102/3/2 103/3/2
f 103/3/2 102/3/2 104/3/2
f 110/3/3 106/3/3 105/3/3
f 111/3/3 106/3/3 110/3/3
f 112/3/3 106/3/3 111/3/3
f 113/3/3 106/3/3 112/3/3
f 116/3/3 110/3/3 109/3/3
f 116/3/3 111/3/3 110/3/3
f 117/3/3 111/3/3 116/3/3
f 118/1/3 112/1/3 111/1/3
f 118/3/3 111/3/3 117/3/3
f 119/3/3 114/3/3 113/3/3
f 119/1/3 112/1/3 118/1/3
f 119/3/3 113/3/3 112/3/3
f 120/3/3 114/3/3 119/3/3
f 121/3/3 114/3/3 120/3/3
f 123/3/3 108/3/3 107/3/3
f 125/3/3 116/3/3 115/3/3
f 125/3/3 117/3/3 116/3/3
f 126/1/3 118/1/3 117/1/3
f 126/3/3 117/3/3 125/3/3
f 126/1/3 119/1/3 118/1/3
f 126/1/3 120/1/3 119/1/3
f 127/3/3 122/3/3 121/3/3
f 127/1/3 120/1/3 126/1/3
f 127/3/3 121/3/3 120/3/3
f 128/3/3 122/3/3 127/3/3
f 129/3/3 122/3/3 128/3/3
f 131/3/3 124/3/3 123/3/3
f 131/3/3 123/3/3 107/3/3
f 132/3/3 124/3/3 131/3/3
f 133/3/3 124/3/3 132/3/3
f 134/3/3 125/3/3 115/3/3
f 135/3/3 125/3/3 134/3/3
f 136/1/3 126/1/3 125/1/3
f 136/3/3 125/3/3 135/3/3
f 136/1/3 127/1/3 126/1/3
f 136/1/3 128/1/3 127/1/3
f 137/3/3 130/3/3 129/3/3
f 137/1/3 128/1/3 136/1/3
f 137/3/3 129/3/3 128/3/3
f 138/3/3 130/3/3 137/3/3
f 139/3/3 135/3/3 134/3/3
f 139/3/3 133/3/3 132/3/3
f 139/3/3 134/3/3 133/3/3
f 140/3/3 135/3/3 139/3/3
f 141/3/3 135/3/3 140/3/3
f 142/3/3 135/3/3 141/3/3
f 143/1/3 138/1/3 137/1/3
f 143/3/3 135/3/3 142/3/3
f 143/1/3 136/1/3 135/1/3
f 143/1/3 137/1/3 136/1/3
f 144/3/3 130/3/3 138/3/3
f 146/2/3 140/2/3 139/2/3
f 146/3/3 139/3/3 132/3/3
f 147/1/3 141/1/3 140/1/3
f 147/2/3 140/2/3 146/2/3
f 148/3/3 142/3/3 141/3/3
f 148/1/3 141/1/3 147/1/3
f 149/1/3 143/1/3 142/1/3
f 149/3/3 142/3/3 148/3/3
f 150/1/3 138/1/3 143/1/3
f 150/1/3 143/1/3 149/1/3
f 150/3/3 145/3/3 144/3/3
f 150/3/3 144/3/3 138/3/3
f 151/3/3 145/3/3 150/3/3
f 152/3/3 147/3/3 146/3/3
f 152/3/3 146/3/3 132/3/3
f 153/3/3 147/3/3 152/3/3
f 154/3/3 145/3/3 151/3/3
f 156/3/3 147/3/3 153/3/3
f 156/2/3 148/2/3 147/2/3
f 157/1/3 149/1/3 148/1/3
f 157/2/3 148/2/3 156/2/3
f 157/1/3 151/1/3 150/1/3
f 157/1/3 150/1/3 149/1/3
f 158/1/3 151/1/3 157/1/3
f 159/3/3 154/3/3 151/3/3
f 159/1/3 151/1/3 158/1/3
f 160/4/3 155/4/3 154/4/3
f 160/3/3 154/3/3 159/3/3
f 161/3/3 156/3/3 153/3/3
f 161/3/3 157/3/3 156/3/3
f 162/3/3 157/3/3 161/3/3
f 163/2/3 158/2/3 157/2/3
f 163/3/3 157/3/3 162/3/3
f 164/1/3 159/1/3 158/1/3
f 164/2/3 158/2/3 163/2/3
f 164/1/3 160/1/3 159/1/3
f 165/1/3 160/1/3 164/1/3
f 166/4/3 155/4/3 160/4/3
f 166/1/3 160/1/3 165/1/3
f 167/4/3 155/4/3 166/4/3
f 168/2/3 165/2/3 164/2/3
f 168/1/3 166/1/3 165/1/3
f 169/1/3 166/1/3 168/1/3
f 170/1/3 166/1/3 169/1/3
f 171/3/3 167/3/3 166/3/3
f 171/1/3 166/1/3 170/1/3
f 172/3/3 163/3/3 162/3/3
f 172/3/3 164/3/3 163/3/3
f 173/3/3 164/3/3 172/3/3
f 174/2/3 168/2/3 164/2/3
f 174/3/3 164/3/3 173/3/3
f 174/2/3 169/2/3 168/2/3
f 175/2/3 169/2/3 174/2/3
f 176/3/3 167/3/3 171/3/3
f 176/3/3 171/3/3 170/3/3
f 177/3/3 167/3/3 176/3/3
f 178/2/3 169/2/3 175/2/3
f 178/1/3 170/1/3 169/1/3
f 179/1/3 170/1/3 178/1/3
f 180/3/3 175/3/3 174/3/3
f 180/3/3 174/3/3 173/3/3
f 181/3/3 175/3/3 180/3/3
f 182/2/3 179/2/3 178/2/3
f 182/3/3 175/3/3 181/3/3
f 182/2/3 178/2/3 175/2/3
f 183/2/3 179/2/3 182/2/3
f 184/1/3 170/1/3 179/1/3
f 185/3/3 176/3/3 170/3/3
f 185/1/3 170/1/3 184/1/3
f 186/3/3 182/3/3 181/3/3
f 186/3/3 183/3/3 182/3/3
f 187/3/3 183/3/3 186/3/3
f 188/1/3 184/1/3 179/1/3
f 188/2/3 179/2/3 183/2/3
f 189/1/3 184/1/3 188/1/3
f 190/3/3 176/3/3 185/3/3
f 190/3/3 185/3/3 184/3/3
f 191/3/3 176/3/3 190/3/3
f 192/3/3 183/3/3 187/3/3
f 192/2/3 189/2/3 188/2/3
f 192/2/3 188/2/3 183/2/3
f 193/2/3 189/2/3 192/2/3
f 194/1/3 184/1/3 189/1/3
f 195/3/3 190/3/3 184/3/3
f 195/1/3 184/1/3 194/1/3
f 196/3/3 192/3/3 187/3/3
f 196/3/3 193/3/3 192/3/3
f 197/3/3 193/3/3 196/3/3
f 198/2/3 189/2/3 193/2/3
f 198/3/3 193/3/3 197/3/3
f 199/1/3 194/1/3 189/1/3
f 199/2/3 189/2/3 198/2/3
f 200/1/3 194/1/3 199/1/3
f 201/1/3 194/1/3 200/1/3
f 202/3/3 195/3/3 194/3/3
f 202/1/3 194/1/3 201/1/3
f 203/3/3 190/3/3 195/3/3
f 203/3/3 195/3/3 202/3/3
f 204/3/3 190/3/3 203/3/3
f 205/3/3 198/3/3 197/3/3
f 205/3/3 199/3/3 198/3/3
f 206/3/3 199/3/3 205/3/3
f 207/2/3 200/2/3 199/2/3
f 207/3/3 199/3/3 206/3/3
f 208/1/3 201/1/3 200/1/3
f 208/2/3 200/2/3 207/2/3
f 209/1/3 201/1/3 208/1/3
f 210/3/3 203/3/3 202/3/3
f 210/1/3 201/1/3 209/1/3
f 210/3/3 202/3/3 201/3/3
f 211/3/3 203/3/3 210/3/3
f 212/3/3 203/3/3 211/3/3
f 213/3/3 208/3/3 207/3/3
f 213/3/3 207/3/3 206/3/3
f 214/3/3 208/3/3 213/3/3
f 215/2/3 209/2/3 208/2/3
f 215/3/3 208/3/3 214/3/3
f 216/3/3 211/3/3 210/3/3
f 216/2/3 209/2/3 215/2/3
f 216/3/3 210/3/3 209/3/3
f 217/3/3 211/3/3 216/3/3
f 218/3/3 211/3/3 217/3/3
f 219/3/3 215/3/3 214/3/3
f 219/3/3 217/3/3 216/3/3
f 219/3/3 216/3/3 215/3/3
f 220/3/3 217/3/3 219/3/3
f 221/3/4 222/3/4 226/3/4
f 226/3/4 222/3/4 227/3/4
f 227/3/4 222/3/4 228/3/4
f 228/3/4 222/3/4 229/3/4
f 225/3/4 226/3/4 232/3/4
f 226/3/4 227/3/4 232/3/4
f 232/3/4 227/3/4 233/3/4
f 227/1/4 228/1/4 234/1/4
f 233/3/4 227/3/4 234/3/4
f 229/3/4 230/3/4 235/3/4
f 234/1/4 228/1/4 235/1/4
f 228/3/4 229/3/4 235/3/4
f 235/3/4 230/3/4 236/3/4
f 236/3/4 230/3/4 237/3/4
f 223/3/4 224/3/4 239/3/4
f 231/3/4 232/3/4 241/3/4
f 232/3/4 233/3/4 241/3/4
f 233/1/4 234/1/4 242/1/4
f 241/3/4 233/3/4 242/3/4
f 234/1/4 235/1/4 242/1/4
f 235/1/4 236/1/4 242/1/4
f 237/3/4 238/3/4 243/3/4
f 242/1/4 236/1/4 243/1/4
f 236/3/4 237/3/4 243/3/4
f 243/3/4 238/3/4 244/3/4
f 244/3/4 238/3/4 245/3/4
f 239/3/4 240/3/4 247/3/4
f 223/3/4 239/3/4 247/3/4
f 247/3/4 240/3/4 248/3/4
f 248/3/4 240/3/4 249/3/4
f 231/3/4 241/3/4 250/3/4
f 250/3/4 241/3/4 251/3/4
f 241/1/4 242/1/4 252/1/4
f 251/3/4 241/3/4 252/3/4
f 242/1/4 243/1/4 252/1/4
f 243/1/4 244/1/4 252/1/4
f 245/3/4 246/3/4 253/3/4
f 252/1/4 244/1/4 253/1/4
f 244/3/4 245/3/4 253/3/4
f 253/3/4 246/3/4 254/3/4
f 250/3/4 251/3/4 255/3/4
f 248/3/4 249/3/4 255/3/4
f 249/3/4 250/3/4 255/3/4
f 255/3/4 251/3/4 256/3/4
f 256/3/4 251/3/4 257/3/4
f 257/3/4 251/3/4 258/3/4
f 253/1/4 254/1/4 259/1/4
f 258/3/4 251/3/4 259/3/4
f 251/1/4 252/1/4 259/1/4
f 252/1/4 253/1/4 259/1/4
f 254/3/4 246/3/4 260/3/4
f 255/2/4 256/2/4 262/2/4
f 248/3/4 255/3/4 262/3/4
f 256/1/4 257/1/4 263/1/4
f 262/2/4 256/2/4 263/2/4
f 257/3/4 258/3/4 264/3/4
f 263/1/4 257/1/4 264/1/4
f 258/1/4 259/1/4 265/1/4
f 264/3/4 258/3/4 265/3/4
f 259/1/4 254/1/4 266/1/4
f 265/1/4 259/1/4 266/1/4
f 260/3/4 261/3/4 266/3/4
f 254/3/4 260/3/4 266/3/4
f 266/3/4 261/3/4 267/3/4
f 262/3/4 263/3/4 268/3/4
f 248/3/4 262/3/4 268/3/4
f 268/3/4 263/3/4 269/3/4
f 267/3/4 261/3/4 270/3/4
f 269/3/4 263/3/4 272/3/4
f 263/2/4 264/2/4 272/2/4
f 264/1/4 265/1/4 273/1/4
f 272/2/4 264/2/4 273/2/4
f 266/1/4 267/1/4 273/1/4
f 265/1/4 266/1/4 273/1/4
f 273/1/4 267/1/4 274/1/4
f 267/3/4 270/3/4 275/3/4
f 274/1/4 267/1/4 275/1/4
f 270/4/4 271/4/4 276/4/4
f 275/3/4 270/3/4 276/3/4
f 269/3/4 272/3/4 277/3/4
f 272/3/4 273/3/4 277/3/4
f 277/3/4 273/3/4 278/3/4
f 273/2/4 274/2/4 279/2/4
f 278/3/4 273/3/4 279/3/4
f 274/1/4 275/1/4 280/1/4
f 279/2/4 274/2/4 280/2/4
f 275/1/4 276/1/4 280/1/4
f 280/1/4 276/1/4 281/1/4
f 276/4/4 271/4/4 282/4/4
f 281/1/4 276/1/4 282/1/4
f 282/4/4 271/4/4 283/4/4
f 280/2/4 281/2/4 284/2/4
f 281/1/4 282/1/4 284/1/4
f 284/1/4 282/1/4 285/1/4
f 285/1/4 282/1/4 286/1/4
f 282/3/4 283/3/4 287/3/4
f 286/1/4 282/1/4 287/1/4
f 278/3/4 279/3/4 288/3/4
f 279/3/4 280/3/4 288/3/4
f 288/3/4 280/3/4 289/3/4
f 280/2/4 284/2/4 290/2/4
f 289/3/4 280/3/4 290/3/4
f 284/2/4 285/2/4 290/2/4
f 290/2/4 285/2/4 291/2/4
f 287/3/4 283/3/4 292/3/4
f 286/3/4 287/3/4 292/3/4
f 292/3/4 283/3/4 293/3/4
f 291/2/4 285/2/4 294/2/4
f 285/1/4 286/1/4 294/1/4
f 294/1/4 286/1/4 295/1/4
f 290/3/4 291/3/4 296/3/4
f 289/3/4 290/3/4 296/3/4
f 296/3/4 291/3/4 297/3/4
f 294/2/4 295/2/4 298/2/4
f 297/3/4 291/3/4 298/3/4
f 291/2/4 294/2/4 298/2/4
f 298/2/4 295/2/4 299/2/4
f 295/1/4 286/1/4 300/1/4
f 286/3/4 292/3/4 301/3/4
f 300/1/4 286/1/4 301/1/4
f 297/3/4 298/3/4 302/3/4
f 298/3/4 299/3/4 302/3/4
f 302/3/4 299/3/4 303/3/4
f 295/1/4 300/1/4 304/1/4
f 299/2/4 295/2/4 304/2/4
f 304/1/4 300/1/4 305/1/4
f 301/3/4 292/3/4 306/3/4
f 300/3/4 301/3/4 306/3/4
f 306/3/4 292/3/4 307/3/4
f 303/3/4 299/3/4 308/3/4
f 304/2/4 305/2/4 308/2/4
f 299/2/4 304/2/4 308/2/4
f 308/2/4 305/2/4 309/2/4
f 305/1/4 300/1/4 310/1/4
f 300/3/4 306/3/4 311/3/4
f 310/1/4 300/1/4 311/1/4
f 303/3/4 308/3/4 312/3/4
f 308/3/4 309/3/4 312/3/4
f 312/3/4 309/3/4 313/3/4
f 309/2/4 305/2/4 314/2/4
f 313/3/4 309/3/4 314/3/4
f 305/1/4 310/1/4 315/1/4
f 314/2/4 305/2/4 315/2/4
f 315/1/4 310/1/4 316/1/4
f 316/1/4 310/1/4 317/1/4
f 310/3/4 311/3/4 318/3/4
f 317/1/4 310/1/4 318/1/4
f 311/3/4 306/3/4 319/3/4
f 318/3/4 311/3/4 319/3/4
f 319/3/4 306/3/4 320/3/4
f 313/3/4 314/3/4 321/3/4
f 314/3/4 315/3/4 321/3/4
f 321/3/4 315/3/4 322/3/4
f 315/2/4 316/2/4 323/2/4
f 322/3/4 315/3/4 323/3/4
f 316/1/4 317/1/4 324/1/4
f 323/2/4 316/2/4 324/2/4
f 324/1/4 317/1/4 325/1/4
f 318/3/4 319/3/4 326/3/4
f 325/1/4 317/1/4 326/1/4
f 317/3/4 318/3/4 326/3/4
f 326/3/4 319/3/4 327/3/4
f 327/3/4 319/3/4 328/3/4
f 323/3/4 324/3/4 329/3/4
f 322/3/4 323/3/4 329/3/4
f 329/3/4 324/3/4 330/3/4
f 324/2/4 325/2/4 331/2/4
f 330/3/4 324/3/4 331/3/4
f 326/3/4 327/3/4 332/3/4
f 331/2/4 325/2/4 332/2/4
f 325/3/4 326/3/4 332/3/4
f 332/3/4 327/3/4 333/3/4
f 333/3/4 327/3/4 334/3/4
f 330/3/4 331/3/4 335/3/4
f 332/3/4 333/3/4 335/3/4
f 331/3/4 332/3/4 335/3/4
f 335/3/4 333/3/4 336/3/4
f 339/3/5 338/3/5 337/3/5
f 340/3/5 338/3/5 339/3/5
f 343/3/5 342/3/5 341/3/5
f 344/3/5 342/3/5 343/3/5
f 347/3/5 346/3/5 345/3/5
f 348/3/5 346/3/5 347/3/5
f 351/3/5 350/3/5 349/3/5
f 352/3/5 350/3/5 351/3/5
f 355/3/5 354/3/5 353/3/5
f 356/3/5 354/3/5 355/3/5
f 359/3/5 358/3/5 357/3/5
f 360/3/5 358/3/5 359/3/5
f 365/3/5 362/3/5 361/3/5
f 366/3/5 362/3/5 365/3/5
f 367/3/5 364/3/5 363/3/5
f 368/3/5 364/3/5 367/3/5
f 373/3/5 370/3/5 369/3/5
f 374/3/5 370/3/5 373/3/5
f 375/3/5 372/3/5 371/3/5
f 376/3/5 372/3/5 375/3/5
f 379/3/5 378/3/5 377/3/5
f 380/3/5 378/3/5 379/3/5
f 383/3/5 382/3/5 381/3/5
f 384/3/5 382/3/5 383/3/5
f 387/3/5 386/3/5 385/3/5
f 388/3/5 386/3/5 387/3/5
f 389/3/6 390/3/6 391/3/6
f 391/3/6 390/3/6 392/3/6
f 393/3/6 394/3/6 395/3/6
f 395/3/6 394/3/6 396/3/6
f 397/3/6 398/3/6 401/3/6
f 401/3/6 398/3/6 402/3/6
f 399/3/6 400/3/6 403/3/6
f 403/3/6 400/3/6 404/3/6
f 405/3/6 406/3/6 409/3/6
f 409/3/6 406/3/6 410/3/6
f 407/3/6 408/3/6 411/3/6
f 411/3/6 408/3/6 412/3/6
f 413/3/6 414/3/6 417/3/6
f 417/3/6 414/3/6 418/3/6
f 415/3/6 416/3/6 419/3/6
f 419/3/6 416/3/6 420/3/6
f 421/3/6 422/3/6 425/3/6
f 425/3/6 422/3/6 426/3/6
f 423/3/6 424/3/6 427/3/6
f 427/3/6 424/3/6 428/3/6
f 429/3/6 430/3/6 433/3/6
f 433/3/6 430/3/6 434/3/6
f 431/3/6 432/3/6 435/3/6
f 435/3/6 432/3/6 436/3/6
f 437/4/6 438/4/6 440/4/6
f 438/3/6 439/3/6 441/3/6
f 440/4/6 438/4/6 441/4/6
f 441/3/6 439/3/6 442/3/6
